<svg id="Layer_1" data-name="Layer 1" xmlns="http://www.w3.org/2000/svg" viewBox="0 0 52 52"><defs><style>.cls-1{fill:#c70038;}.cls-1,.cls-2{fill-rule:evenodd;}.cls-2{fill:#17388c;}</style></defs><path class="cls-1" d="M36.09,30.61a45.77,45.77,0,0,1,9.27-2.16h0A41.5,41.5,0,0,1,33.76,26a38.19,38.19,0,0,0-4.62,2.08,42.2,42.2,0,0,0,7,2.56M18.33,44.79a32.62,32.62,0,0,1,11-11,49.73,49.73,0,0,1-5.26-2.51A45.37,45.37,0,0,0,14,42Zm26.94-7.16,0-5.39h0ZM25.63,49.49c5.45-7.42,12.16-10.55,19.64-11.86a62.45,62.45,0,0,1-11.19-2.2A30.86,30.86,0,0,0,21.3,46.76ZM45.27,19.65l0-5.28h0Zm-9.14,1.68a50.3,50.3,0,0,1,9.14-1.57A37.7,37.7,0,0,1,34,16.56q-2.37.71-4.64,1.62A36,36,0,0,0,36.13,21.33ZM25.3,26a38.9,38.9,0,0,1,3.86-2.09,39.54,39.54,0,0,1-5-3.21c-1.16.64-2.29,1.32-3.39,2.05A40,40,0,0,0,25.3,26ZM11.08,40.17v0l0,0a46.79,46.79,0,0,1,9.62-11A45.91,45.91,0,0,1,16.47,26a50.57,50.57,0,0,0-9.85,11.4Z"/><path class="cls-2" d="M11.13,11.79C19.69,25,31.4,31.05,45.27,32.2v5.43c-16.05-1.71-29.34-8.6-38.6-23Zm7.22-4.64c6,9.76,15.56,14.85,27,16.33v5C32.91,27.56,22.07,21.69,14,9.92ZM25.6,2.51c5.45,7.42,12.16,10.55,19.64,11.86l0,5.39c-9.67-1.29-18-5.4-24-14.52Z"/></svg>