<svg id="Layer_1" data-name="Layer 1" xmlns="http://www.w3.org/2000/svg" viewBox="0 0 52 52"><defs><style>.cls-1{fill:#002368;}.cls-1,.cls-2,.cls-3{fill-rule:evenodd;}.cls-2{fill:#e0081c;}.cls-3{fill:#fff;}</style></defs><polygon class="cls-1" points="0 0 52 0 52 52 0 52 0 0 0 0"/><g id="Layer_1-2" data-name="Layer_1"><g id="_344217720" data-name=" 344217720"><path class="cls-2" d="M5.39,19.38v5.29H3.85c-.27,0-.35.25-.36.52v.42c0,.21.11.5.31.5H5.39v5.33c0,.22.27.34.57.37h.27c.31,0,.59-.15.59-.34V26.11h1.1v5.36c0,.2.28.31.6.34h.25c.31,0,.6-.14.6-.34V26.11h1.08v5.38c0,.19.28.3.59.32h.22c.31,0,.59-.13.59-.34V26.11H13v5.38c0,.22.3.3.57.32h.18a1.49,1.49,0,0,0,.42-.08.3.3,0,0,0,.24-.31V26.11H16c.35,0,.32-.62.32-.89s-.1-.55-.34-.55H14.38v-5.4a.29.29,0,0,0-.17-.2,1,1,0,0,0-.34-.07h-.38a1,1,0,0,0-.34.07.25.25,0,0,0-.16.17c-.06.15,0,2.09,0,2.34v3.09a5.78,5.78,0,0,0-1.11,0v-5.4c0-.19-.24-.27-.49-.29H11a1.29,1.29,0,0,0-.32.06c-.07,0-.19.12-.19.21v5.4H9.37V19.31c0-.24-.29-.3-.57-.31H8.41c-.21,0-.49.11-.49.31v5.36H6.82V19.34c0-.22-.22-.31-.48-.34H5.92a1.11,1.11,0,0,0-.39.09A.34.34,0,0,0,5.39,19.38Z"/><path class="cls-3" d="M44.91,29.18H42.26V26H44.6c1.39,0,1.9.31,1.9,1.72a2.18,2.18,0,0,1-.18.95C46.08,29.09,45.49,29.18,44.91,29.18Zm-2.65-4.74,0-.18c0-.53,0-2.51,0-2.69s1.69,0,2.06,0l.65,0a1.35,1.35,0,0,1,.73.24c.39.31.39,1.07.33,1.54a1.18,1.18,0,0,1-.29.7,2,2,0,0,1-1.54.39C43.91,24.45,42.39,24.48,42.26,24.44Zm-2.24-4v10a.41.41,0,0,0,.46.36h4.43c1.58,0,3-.08,3.63-1.47a4,4,0,0,0,.3-1.84v-.06A2.8,2.8,0,0,0,48,25.6a3.37,3.37,0,0,0-1.09-.52,2.05,2.05,0,0,0,1.35-2c0-1.39-.39-2.4-1.77-2.79a6.32,6.32,0,0,0-1.29-.16H40.36A.4.4,0,0,0,40,20.42Z"/><path class="cls-3" d="M34,29.22A3.42,3.42,0,0,1,32.62,29a2.81,2.81,0,0,1-1.37-2.58,7.67,7.67,0,0,1,.46-3.89A2.18,2.18,0,0,1,32,22.1a1.56,1.56,0,0,1,.2-.16,3.43,3.43,0,0,1,3.58.18c.81.82.85,2.19.85,3.32a6.11,6.11,0,0,1-.54,2.71A2.3,2.3,0,0,1,34,29.22Zm-5-3.9a7.83,7.83,0,0,0,.63,3.28c.84,1.68,2.42,2.27,4.31,2.27a5.44,5.44,0,0,0,2.88-.69,4,4,0,0,0,1.76-2.49l.12-.53a8.55,8.55,0,0,0-.61-5.36,3.68,3.68,0,0,0-2.63-1.73,7.46,7.46,0,0,0-3.95.28,3.66,3.66,0,0,0-1.8,1.6,5.46,5.46,0,0,0-.6,1.91A12,12,0,0,0,29,25.32Z"/><path class="cls-3" d="M19,20.45v6.34l.07,1a4.14,4.14,0,0,0,.18.89A2.55,2.55,0,0,0,20,29.78a.86.86,0,0,1,.14.13,5.09,5.09,0,0,0,3.31.88,5.77,5.77,0,0,0,3.1-.68c.05,0,.11-.07.15-.11a2.48,2.48,0,0,0,.71-.81,4.58,4.58,0,0,0,.42-2.11V20.5c0-.57-1-.47-1.22-.49s-1,0-1.07.39v0l0,.16c0,1.13,0,2.29,0,3.43v3.42a1.78,1.78,0,0,1-.11.73,2,2,0,0,1-1.74.86,2.71,2.71,0,0,1-1.72-.33,1,1,0,0,1-.6-.88c-.07-.92,0-1.95,0-2.91V20.52a.35.35,0,0,0-.1-.27l-.1-.06L21,20.12a1.32,1.32,0,0,0-.78-.11,1.43,1.43,0,0,0-.78.09C19.25,20.15,19,20.25,19,20.45Z"/></g></g></svg>