<svg id="Layer_1" data-name="Layer 1" xmlns="http://www.w3.org/2000/svg" viewBox="0 0 55.33 52.81"><defs><style>.cls-1{fill:#fff;}.cls-2{fill:#f2f2f2;}.cls-3{fill:#e5155f;}.cls-4{fill:#11100e;}</style></defs><rect class="cls-1" width="55.33" height="52.81" rx="5"/><rect class="cls-2" x="2.51" y="2.51" width="50.3" height="47.78" rx="5"/><path class="cls-3" d="M28.25,7.89a13.19,13.19,0,0,0-13.2,13.2V34.3h13.2a13.21,13.21,0,0,0,0-26.41"/><path class="cls-4" d="M8.47,44.92a.67.67,0,0,1-.67-.67v-5.7A.66.66,0,0,1,8,38.07a.64.64,0,0,1,.49-.2h1.88a3.56,3.56,0,0,1,2,.51,3.29,3.29,0,0,1,1.22,1.32,3.79,3.79,0,0,1,0,3.39,3.42,3.42,0,0,1-1.22,1.32,3.56,3.56,0,0,1-2,.51H8.47m1.78-1.3a2.51,2.51,0,0,0,1.23-.28,1.91,1.91,0,0,0,.81-.78,2.29,2.29,0,0,0,.29-1.16,2.37,2.37,0,0,0-.29-1.18,2,2,0,0,0-.81-.78,2.63,2.63,0,0,0-1.23-.28H9.15v4.46Z"/><path class="cls-4" d="M21.52,44.92a.62.62,0,0,1-.48-.2.61.61,0,0,1-.19-.47v-4a.66.66,0,0,1,.19-.48.66.66,0,0,1,.48-.2.67.67,0,0,1,.49.19.71.71,0,0,1,.19.49v4a.66.66,0,0,1-.2.48.66.66,0,0,1-.48.19m0-5.82a.7.7,0,0,1-.52-.22.68.68,0,0,1-.21-.51v0a.72.72,0,0,1,.21-.52.73.73,0,0,1,.52-.21h.05a.72.72,0,0,1,.52.21.73.73,0,0,1,.22.52v0a.75.75,0,0,1-.74.73Z"/><path class="cls-4" d="M19,39.49a.73.73,0,0,0-.48.19.67.67,0,0,0-.2.48v2.56a1,1,0,0,1-1.05.91c-.55,0-1-.26-1-.89V40.16a.66.66,0,0,0-.19-.48.69.69,0,0,0-.48-.19.71.71,0,0,0-.48.19.67.67,0,0,0-.2.48v2.67a2.4,2.4,0,0,0,.23,1,1.8,1.8,0,0,0,1.7,1.05,1.42,1.42,0,0,0,1.05-.31c.21-.19.31-.43.38-.43s.07,0,.07.07a.7.7,0,0,0,.19.47.65.65,0,0,0,.48.2.66.66,0,0,0,.48-.19.66.66,0,0,0,.2-.48v-1.6h0V40.16a.67.67,0,0,0-.2-.48.69.69,0,0,0-.48-.19"/><path class="cls-3" d="M32.73,44.92a.79.79,0,0,1-.4-.1.91.91,0,0,1-.3-.25h0l-3.19-4.43v4.12a.66.66,0,0,1-.2.48.66.66,0,0,1-.48.19.63.63,0,0,1-.48-.2.65.65,0,0,1-.19-.47V38.8a.88.88,0,0,1,.25-.61.83.83,0,0,1,.61-.26h.12a.88.88,0,0,1,.72.39h0l3.16,4.24V38.62a.66.66,0,0,1,.2-.48.63.63,0,0,1,.48-.21.64.64,0,0,1,.48.21.66.66,0,0,1,.2.48v5.44a.85.85,0,0,1-.25.61.86.86,0,0,1-.62.25h-.11"/><path class="cls-3" d="M46.31,44.92a.84.84,0,0,1-.51-.16.92.92,0,0,1-.32-.41h0L44.68,42l-.8,2.37h0a.92.92,0,0,1-.32.41.86.86,0,0,1-.51.16.9.9,0,0,1-.83-.56l-1.4-3.91a.69.69,0,0,1,.16-.72.69.69,0,0,1,.5-.19.77.77,0,0,1,.4.11.53.53,0,0,1,.26.31l.91,2.84.89-2.75a.76.76,0,0,1,.29-.37.71.71,0,0,1,.45-.14.76.76,0,0,1,.46.14.74.74,0,0,1,.28.37l.89,2.75L47.22,40a.61.61,0,0,1,.26-.31.77.77,0,0,1,.4-.11.69.69,0,0,1,.5.19.64.64,0,0,1,.16.72l-1.4,3.91a.86.86,0,0,1-.31.4.85.85,0,0,1-.52.16"/><path class="cls-4" d="M25.31,44.92c-1,0-1.62-.53-1.62-1.49V40.77h-.06a.61.61,0,0,1-.62-.62.65.65,0,0,1,.18-.44.62.62,0,0,1,.44-.17h.06v-.7a.61.61,0,0,1,.2-.48.64.64,0,0,1,.47-.19.63.63,0,0,1,.48.19.64.64,0,0,1,.2.48v.7h.81a.62.62,0,0,1,.44.17.6.6,0,0,1,.18.44.61.61,0,0,1-.62.62H25v2.59a.41.41,0,0,0,.29.42,3.5,3.5,0,0,1,.87.06.5.5,0,0,1,.26.42.58.58,0,0,1-.35.55h0a1.74,1.74,0,0,1-.79.1"/><path class="cls-1" d="M28.25,13.79a7.3,7.3,0,0,0-7.31,7.3V28.4h7.31a7.31,7.31,0,0,0,0-14.61m0,10.57H25V21.09a3.27,3.27,0,1,1,3.27,3.27Z"/><path class="cls-3" d="M37.56,39.36a2.78,2.78,0,1,0,2.78,2.78,2.78,2.78,0,0,0-2.78-2.78m0,4.27a1.49,1.49,0,1,1,1.49-1.49A1.5,1.5,0,0,1,37.56,43.63Z"/></svg>