<svg id="Layer_1" data-name="Layer 1" xmlns="http://www.w3.org/2000/svg" viewBox="0 0 52 52"><defs><style>.cls-1{fill:#0067ff;}</style></defs><path d="M1.73,47.41a5,5,0,0,0,1,.06H23.65a7.86,7.86,0,0,0,1,0,1.65,1.65,0,0,0,0-3.26,4.66,4.66,0,0,0-.83,0H2.64a5.26,5.26,0,0,0-.89,0,1.63,1.63,0,0,0,0,3.22Z"/><path d="M2.71,17.81A3.89,3.89,0,0,0,6.15,22a.74.74,0,0,1,.72.88c0,.62,0,1.25,0,1.87V36.21c0,.91-.08,1-1,1-.56,0-1.11,0-1.66,0a1.65,1.65,0,0,0,0,3.29,9,9,0,0,0,.9,0H18.77c1.6,0,3.19,0,4.79,0A1.58,1.58,0,0,0,25.2,38.9a1.6,1.6,0,0,0-1.64-1.69,12.89,12.89,0,0,0-1.39,0c-.62,0-.86-.23-.86-.86,0-4.46,0-8.93,0-13.39,0-.65.22-.92.89-.91,2,0,3.93,0,5.9,0,.91,0,1,.08,1,1,0,1.35,0,2.69,0,4a1.61,1.61,0,0,0,1.95,1.62A1.55,1.55,0,0,0,32.41,27c0-1.39,0-2.78,0-4.17,0-.58.22-.83.82-.82,2,0,4.07,0,6.11,0,.64,0,.87.27.84.88s0,1.11,0,1.66a1.66,1.66,0,0,0,3.32,0,12.85,12.85,0,0,0,0-1.52c0-.64.18-.94.85-1.07a3.84,3.84,0,0,0,3.32-4.07c0-1.39,0-2.78,0-4.16a4.18,4.18,0,0,0-2.43-4L36.52,4.86c-2.14-1.19-4.24-2.47-6.44-3.55-3.69-1.82-7.31-1.45-10.87.57C14.51,4.56,9.75,7.14,5,9.76A4.06,4.06,0,0,0,2.7,13.58C2.72,15,2.7,16.4,2.71,17.81ZM18,36.26c0,.82-.11.93-.93.93-2,0-4,0-6,0-.68,0-.88-.27-.88-.91,0-2.24,0-4.49,0-6.73V23c0-.83.09-.91.92-.92,2,0,4,0,6,0,.67,0,.89.26.89.91C18,27.38,18,31.82,18,36.26ZM6.78,12.67C11.69,10,16.59,7.2,21.52,4.5a7.3,7.3,0,0,1,7.3,0C33,6.74,37.15,9.09,41.31,11.41c.77.42,1.53.86,2.31,1.26a1.21,1.21,0,0,1,.74,1.22c0,1.18,0,2.36,0,3.54s-.16,1.19-1.22,1.19H7.41c-1.25,0-1.36-.11-1.37-1.33s0-2.27,0-3.4A1.24,1.24,0,0,1,6.78,12.67Z"/><path class="cls-1" d="M40,51.86A11.65,11.65,0,1,1,51.62,40.21,11.66,11.66,0,0,1,40,51.86Zm0-21.18a9.54,9.54,0,1,0,9.53,9.53A9.55,9.55,0,0,0,40,30.68Z"/><path class="cls-1" d="M40,51.86h0a1,1,0,0,1-.45-.1,1.58,1.58,0,0,1-.24-.15,14.89,14.89,0,0,1-5.34-10.34H29.37a1.06,1.06,0,0,1,0-2.11h4.56a14.89,14.89,0,0,1,5.34-10.34,1.2,1.2,0,0,1,.24-.15,1,1,0,0,1,.45-.11h0a1,1,0,0,1,.45.11,1.58,1.58,0,0,1,.24.15A14.89,14.89,0,0,1,46,39.16h4.56a1.06,1.06,0,1,1,0,2.11H46a14.89,14.89,0,0,1-5.34,10.34,1,1,0,0,1-.24.15A1,1,0,0,1,40,51.86ZM36.05,41.27A12.72,12.72,0,0,0,40,49.39a12.76,12.76,0,0,0,3.91-8.12Zm0-2.11h7.83A12.76,12.76,0,0,0,40,31,12.72,12.72,0,0,0,36.05,39.16Z"/><path class="cls-1" d="M48.33,47.41a1,1,0,0,1-.55-.16A14.63,14.63,0,0,0,40,45.18a14.64,14.64,0,0,0-7.82,2.07,1.06,1.06,0,0,1-1.09-1.81A16.84,16.84,0,0,1,40,43.06a16.83,16.83,0,0,1,8.9,2.38,1.06,1.06,0,0,1-.54,2ZM40,37.37A16.84,16.84,0,0,1,31.06,35a1.06,1.06,0,1,1,1.09-1.81A14.64,14.64,0,0,0,40,35.25a14.63,14.63,0,0,0,7.81-2.07A1.06,1.06,0,0,1,48.87,35,16.83,16.83,0,0,1,40,37.37Z"/></svg>