<svg id="Layer_1" data-name="Layer 1" xmlns="http://www.w3.org/2000/svg" viewBox="0 0 55.33 52.81"><defs><style>.cls-1{fill:#fff;}.cls-2{fill:#ef4f2c;}</style></defs><rect class="cls-1" width="55.33" height="52.81" rx="5"/><rect class="cls-2" x="2.51" y="2.51" width="50.3" height="47.78" rx="5"/><path class="cls-1" d="M37.44,35.44A2.69,2.69,0,0,0,40,33V32.8l1-19.28v0a.57.57,0,0,0-.57-.57H34.26c-.16-4-3-7.16-6.53-7.16s-6.37,3.18-6.53,7.16H15.05a.57.57,0,0,0-.55.57v0l.87,19.21V33a2.62,2.62,0,0,0,2.44,2.46H37.44M27.73,7.5c2.56,0,4.64,2.4,4.74,5.42H23C23.09,9.9,25.17,7.5,27.73,7.5ZM32.61,28a3.91,3.91,0,0,1-2.41,3.16,6,6,0,0,1-2.57.43,8,8,0,0,1-3.49-.9,8.73,8.73,0,0,1-1.41-1l-.05-.29.57-.83.35,0,.17.13a6.79,6.79,0,0,0,3.87,1.47c1.88,0,3.25-.86,3.49-2.16s-.87-2.65-3.06-3.33a25.38,25.38,0,0,1-2.78-1.11,3.63,3.63,0,0,1-2.14-3.49c.15-2,2-3.49,4.38-3.5a7.88,7.88,0,0,1,3.1.64,7.68,7.68,0,0,1,1.22.65l.08.35c-.09.16-.37.59-.48.77l-.33,0a6.66,6.66,0,0,0-3.56-1.1c-1.62,0-2.83,1-2.91,2.29s.88,2,2.79,2.69C31.39,24.17,32.89,25.65,32.61,28Z"/><path class="cls-1" d="M15.34,40.84c-.83-.27-1.21-.63-1.21-1.11a1.12,1.12,0,0,1,1.21-1,2.72,2.72,0,0,1,1.53.46l.26,0,.12-.17h0l.12-.18-.06-.26-.57-.29A3.59,3.59,0,0,0,15.31,38a1.93,1.93,0,0,0-2,1.68,1.71,1.71,0,0,0,1,1.62,11.18,11.18,0,0,0,1.28.49c1,.27,1.44.78,1.34,1.38s-.66.9-1.47.92a2.93,2.93,0,0,1-1.71-.61l0,0-.05,0-.27,0-.12.2-.13.18.05.23a4,4,0,0,0,.65.43,3.75,3.75,0,0,0,1.62.39,2.82,2.82,0,0,0,1.18-.23,1.85,1.85,0,0,0,1.11-1.5c.11-1.09-.61-1.77-2.43-2.31"/><path class="cls-1" d="M20.45,40.56a2.12,2.12,0,0,0-1.22.4V38.14L19.08,38h-.51l-.16.15V44.7l.16.15h.51l.15-.15V42.56a1.22,1.22,0,0,1,2.43,0V44.7l.15.15h.51l.15-.15V42.55a2,2,0,0,0-2-2"/><path class="cls-1" d="M25.32,40.57a2.15,2.15,0,1,0,2.19,2.14,2.17,2.17,0,0,0-2.19-2.14m0,3.51a1.37,1.37,0,1,1,1.39-1.37A1.38,1.38,0,0,1,25.32,44.08Z"/><path class="cls-1" d="M41.92,43h0l.24-.26v0a2.09,2.09,0,1,0-4.17,0L38,43v0a2.05,2.05,0,0,0,.53,1.13h0a2.22,2.22,0,0,0,1.23.68h.1a3,3,0,0,0,1.67-.25l.31-.2.08-.06,0,0L42,44l-.25-.39-.21,0,0,0a1.9,1.9,0,0,1-1.66.39l-.32-.11a1.36,1.36,0,0,1-.72-.92h3.09m-3-.79a1.24,1.24,0,0,1,1.21-.87,1.32,1.32,0,0,1,1.22.87Z"/><path class="cls-1" d="M30.35,40.56A2.16,2.16,0,0,0,29,41v-.33l-.15-.15h-.49l-.15.15V46.9l.15.15h.49L29,46.9V44.37a2.15,2.15,0,1,0,1.37-3.81m0,3.5A1.36,1.36,0,0,1,29,42.74v-.07a1.37,1.37,0,1,1,1.37,1.39Z"/><path class="cls-1" d="M37.35,42.71a2.08,2.08,0,1,0-4.16,0V43a2.12,2.12,0,0,0,.53,1.13h0a2.18,2.18,0,0,0,1.23.68h.09a3,3,0,0,0,1.67-.25l.31-.2.08-.06,0,0L37.2,44c-.16-.26-.25-.39-.25-.39l-.2,0,0,0a1.88,1.88,0,0,1-1.66.39l-.31-.11A1.35,1.35,0,0,1,34,43h3.1l.24-.26v0m-3.29-.49a1.24,1.24,0,0,1,1.21-.87,1.34,1.34,0,0,1,1.23.87Z"/></svg>