<svg id="Layer_1" data-name="Layer 1" xmlns="http://www.w3.org/2000/svg" viewBox="0 0 200 40"><defs><style>.cls-1{fill:#f9bb18;}.cls-2{fill:none;}.cls-3{fill:#231f20;}</style></defs><rect class="cls-1" width="200" height="40"/><rect class="cls-1" x="16" y="-0.09" width="168" height="40.18"/><polygon points="70.77 29.19 75.35 16.68 76.85 29.19 81.69 29.19 79.07 10.81 73.16 10.81 69.25 21.85 65.33 10.81 59.42 10.81 56.8 29.19 61.64 29.19 63.14 16.68 67.72 29.19 70.77 29.19"/><polygon points="96.23 15.52 102.46 29.19 99.99 34.55 105.36 34.55 113.92 15.52 108.38 15.52 105.09 25.08 101.77 15.52 96.23 15.52"/><polygon points="178.58 29.18 172.92 21.87 178.08 15.52 172.31 15.52 167.73 21.49 167.73 9.29 162.71 9.29 162.71 29.18 167.73 29.18 167.73 22.25 172.88 29.18 178.58 29.18"/><path class="cls-2" d="M119.83,18.83V26c.92.25,4.7,1,4.7-3.78S120.85,18.49,119.83,18.83Z"/><path d="M114.73,28.49a20,20,0,0,0,6.37,1c3.72,0,8.56-1.15,8.56-7.55s-6.43-6.64-7.18-6.64a5.86,5.86,0,0,0-2.65.56V9.27h-5.1Zm5.1-2.47V18.83c1-.34,4.7-1.26,4.7,3.41S120.75,26.27,119.83,26Z"/><path class="cls-2" d="M139.73,22.87c-1,0-4.76.15-4.76,2.11s3.69,1.52,4.76,1.39Z"/><path d="M132.4,19c7.33-2.16,7.33.44,7.33.78v.47c-5.93,0-9.46,1.74-9.46,4.81s3.29,4.47,7.64,4.47a17.27,17.27,0,0,0,6.58-1V20c0-3-1.94-4.9-6.58-4.9s-6.66,1.1-6.66,1.1ZM135,25c0-2,3.73-2.1,4.76-2.11v3.5C138.66,26.5,135,26.81,135,25Z"/><path class="cls-2" d="M91.8,22.87c-1,0-4.76.15-4.76,2.11s3.69,1.52,4.76,1.39Z"/><path d="M84.48,19c7.32-2.16,7.32.44,7.32.78v.47c-5.92,0-9.46,1.74-9.46,4.81s3.29,4.47,7.65,4.47a17.24,17.24,0,0,0,6.57-1V20c0-3-1.93-4.9-6.57-4.9s-6.67,1.1-6.67,1.1ZM87,25c0-2,3.74-2.1,4.76-2.11v3.5C90.73,26.5,87,26.81,87,25Z"/><path d="M155.76,29.16h5.05V20.51c0-4.5-3.23-5.45-7.21-5.45a24.52,24.52,0,0,0-7.18,1.1v13h5V18.82c3.88-1.14,4.3.73,4.3,1.63Z"/><circle class="cls-1" cx="36.73" cy="20" r="14.04"/><path class="cls-3" d="M36.73,6a14,14,0,1,1-14,14,14,14,0,0,1,14-14m0-1.28A15.32,15.32,0,1,0,52.05,20,15.33,15.33,0,0,0,36.73,4.68Z"/><path class="cls-2" d="M26.23,19.76c.06-.1.5-.37.47-.46s-.24-.14-.44-.09-.87.38-.77.55.7,1,1,1,.24-.34.13-.49S26.17,19.86,26.23,19.76Z"/><path class="cls-2" d="M33.61,14.77c.29-.36.42-.5.48-.49s-.52,0-.74,0a.33.33,0,0,1,.12.25.34.34,0,0,1-.34.34l-.09,0v0S33.32,15.13,33.61,14.77Z"/><path class="cls-2" d="M30,23.14a1.91,1.91,0,0,0-.47.27l-.26.17a2.49,2.49,0,0,0,.79.84A4.82,4.82,0,0,1,30,23.14Z"/><path class="cls-2" d="M35,23.68c0-.27-.86-.36-.86-.36a5.36,5.36,0,0,1,.21.91c0,.12-.71.09-.71.09a2.78,2.78,0,0,1-.15.78C34.5,24.65,35,24,35,23.68Z"/><path class="cls-2" d="M31.1,25.82s.17.71.37.78.21-.28.48-.54A1.8,1.8,0,0,1,31.1,25.82Z"/><path d="M30.14,14.64A4.17,4.17,0,0,1,31,12.93a17.09,17.09,0,0,1,5.08-2.53,1.2,1.2,0,0,1,.71,0,1.57,1.57,0,0,0,0,.2.65.65,0,0,1-.19.33.9.9,0,0,0,1-.76c.1-.45.45-2.22,1-2.19,1.57.07,2.7,5.14,2.58,5.37s-.69,0-.69,0c1,1.55,2.26,1.53,2.55,1.29s.13-1,.13-1c3.09,1.83,2.91,4,2.91,4,.93-3.61-1.21-5.15-1.21-5.15a3.85,3.85,0,0,1,1.75.5,10,10,0,0,0-4-2.71S39.48,6.83,38.47,7c-.84.11-1.31,1.64-1.55,2.69a2.77,2.77,0,0,0-.62,0c-.22-.28-1.16-1.39-1.52-1a5,5,0,0,0-.2,1.56c-1.52.6-4.09,1.73-4.62,2.57a4.31,4.31,0,0,0-.58,1.32s-3.09,2-3.85,4.15A16.26,16.26,0,0,1,30.14,14.64Z"/><path d="M40.08,13c0-1.6-.83-2.88-1.24-3s-.53,1.46-.53,1.46A10,10,0,0,1,40.08,13Z"/><path d="M32.49,12.74c-.62.38-.35.69-.35.69s-.1-.31.66-.53c1.37-.39,2.6-.78,2.57-1.11s-.95-.46-.95-.46C34.68,11.67,33.11,12.37,32.49,12.74Z"/><path d="M32,16.4s.39-.91.68-1a1.73,1.73,0,0,0,.78,0c.27-.1.79-.79,1-.81,0,0-.53,2.32-2.7,2.28,0,0,1.56.88,2.35.26s.19-1.1,1.22-2.09.34-1,.3-1a1.49,1.49,0,0,1-.36-.08,1.15,1.15,0,0,1,.43-.32c.29-.13,2-.88,2-1.33s-1.2-.95-1.82-.93c0,0,.56.23.53.54s-1.64,1-1.64,1.94a4.38,4.38,0,0,1-1-.05,1.72,1.72,0,0,0-1.32.26c-.46.31-.49-.37-.45-.46s-.89.56.23,1.28a4.36,4.36,0,0,0-.5.6C31.69,15.58,31.51,16.2,32,16.4Zm1.09-1.54a.34.34,0,0,0,.34-.34.33.33,0,0,0-.12-.25c.22,0,.74,0,.74,0s-.19.13-.48.49-.56.09-.56.09v0Z"/><path d="M30.61,19.37s0-.82-.78-.65c-1.27.3-1.71,2.56-1.71,2.56C29.55,18.64,30.61,19.37,30.61,19.37Z"/><path d="M31.09,21.38c.69-1.12-.15-1.83-1.24-1.23a3.25,3.25,0,0,0-1.34,2.06C30.65,19.87,31.09,21.38,31.09,21.38Z"/><path d="M28.32,19.29C29.1,18,30,18.05,30,18.05,28.92,17.28,28.32,19.29,28.32,19.29Z"/><path d="M41.3,19.94a2.53,2.53,0,0,1-.7-2c.09-1.28.33-3.2-1.84-4.54a4,4,0,0,1,.57,2.7C39,17.47,37.92,19.76,38,20.52c.19,1.66,1.92,2,1.79,4.24a3.86,3.86,0,0,0,.82-2.68c-.19-1.45-1.47-2.08-.9-3.23A2.7,2.7,0,0,0,41.3,19.94Z"/><path d="M47.52,13.9s1.89,5.14-.24,9.81a4.23,4.23,0,0,0-.4-2,5.68,5.68,0,0,1-.15-3.63,3.94,3.94,0,0,0-1,2.77c.06,1.73.52,6.6-3,8.42A8.91,8.91,0,0,0,43.59,24a1.36,1.36,0,0,1,.69.78A8.26,8.26,0,0,0,44,19.16a2.86,2.86,0,0,1,1.12.49,3.72,3.72,0,0,0-2-3.74c-.63-.39-.54-.6-.54-.6a1,1,0,0,0,.22,1,3.47,3.47,0,0,1,.88,2A2.45,2.45,0,0,0,42,17.92a6,6,0,0,1,1.58,5,3.14,3.14,0,0,0-1.69-.74,6,6,0,0,1,.15,5,3.36,3.36,0,0,0-.47-1.41,3.35,3.35,0,0,1-2.47,2.43s1.75-2.19-.32-3.29S35,26.23,34.61,28.37c0,0-2.4.17-2.64-.8a1.23,1.23,0,0,1,.46-1.38s.37.23,1.21-.16,2.62-1.44,2.44-2.79-2.27-2.66-3.93-2.12-2.62,2-3.48,2a2.23,2.23,0,0,1-1.78-2c.15-.69.72-.89.91-2a.9.9,0,0,1-.5-.1,1.81,1.81,0,0,0-1-.28c-.29.07-1,.55-1,.46a3.09,3.09,0,0,1,.07-.6s-.78.82-.66,1.15a4.63,4.63,0,0,0,1.5,1.62,3.72,3.72,0,0,0,1.05,1.94,1.58,1.58,0,0,0,1.5.57,3,3,0,0,0,1.83,1.28,8.18,8.18,0,0,1-.05-2L30.6,23c.16-.16,2-1.86,3.37-.21a1.58,1.58,0,0,0-.86,1c-.25.77-.39,2.71-2.43,1.47A2.37,2.37,0,0,0,31.13,27a2,2,0,0,0,1.25,1.83c1.35.65,2.28.16,3.15.59a5.45,5.45,0,0,1,.65-2.85c.73-1.08,1.77-1.44,2.28-1s.82,2-1.13,3.65a5.73,5.73,0,0,0,3.76-.88,7.4,7.4,0,0,1-1.73,3.81A12.41,12.41,0,0,0,47.52,13.9Zm-21,6.91c-.33,0-.93-.87-1-1s.57-.49.77-.55.41,0,.44.09-.41.36-.47.46.35.48.42.56S26.85,20.81,26.52,20.81Zm2.71,2.77.26-.17a1.91,1.91,0,0,1,.47-.27A4.82,4.82,0,0,0,30,24.42,2.49,2.49,0,0,1,29.23,23.58Zm4.39.74s.68,0,.71-.09a5.36,5.36,0,0,0-.21-.91s.85.09.86.36-.48,1-1.51,1.42A2.78,2.78,0,0,0,33.62,24.32ZM31.47,26.6c-.2-.07-.37-.78-.37-.78a1.8,1.8,0,0,0,.85.24C31.68,26.32,31.66,26.66,31.47,26.6Z"/><path d="M38.54,14.38s-1.45-.82-2.1,0-.22,2.18-.58,3l0,0c-.81-.72-1.8.51-2,.87s-.43.4-.43.4c-1.77.36-1.4-1.07-2-1.5s-1.59.2-1.59.2c1-.18,1.23.51,1.2.78a3.4,3.4,0,0,0,.45,1.53c.27.45,1.38.13,2.29.2s1.43,1.18,1.43,1.18c.54-1.32-.93-1.93-.93-1.93s.43-.81.94-.53c1.62.89,1.21,4.51,1.21,4.51,1.39-2.61.78-4.15,0-5.05C36.57,17.26,37,14.69,38.54,14.38Z"/></svg>